<svg viewBox="0 0 30 43" fill="none" xmlns="http://www.w3.org/2000/svg">
<path fill-rule="evenodd" clip-rule="evenodd" d="M5.05275 1.21086C3.65752 0.164438 1.67818 0.447201 0.631756 1.84243C-0.414664 3.23765 -0.1319 5.217 1.26333 6.26342L9.75895 12.6351C13.115 14.8227 16.7956 16.479 20.671 17.5396L21.7102 17.824V24.5073L21.0392 24.7063C17.8085 25.6644 14.7231 27.0387 11.8588 28.79L1.26333 36.7367C-0.1319 37.7831 -0.414664 39.7624 0.631756 41.1577C1.67818 42.5529 3.65752 42.8356 5.05275 41.7892L28.7366 24.0263C29.5318 23.43 29.9998 22.494 29.9998 21.5C29.9998 20.5061 29.5318 19.5701 28.7366 18.9738L5.05275 1.21086Z" fill="#F347B9"></path>
</svg>